<mxfile host="app.diagrams.net" modified="2024-05-07T11:12:36.294Z" agent="Mozilla/5.0 (Windows NT 10.0; Win64; x64) AppleWebKit/537.36 (KHTML, like Gecko) Chrome/124.0.0.0 Safari/537.36" etag="fMuqRLAl0grvA-emgW63" version="24.2.8" type="device">
  <diagram name="Страница — 1" id="e6kaVKJ8_xeWUmDwlyiY">
    <mxGraphModel dx="1985" dy="869" grid="1" gridSize="10" guides="1" tooltips="1" connect="1" arrows="1" fold="1" page="1" pageScale="1" pageWidth="827" pageHeight="1169" math="0" shadow="0">
      <root>
        <mxCell id="0" />
        <mxCell id="1" parent="0" />
        <mxCell id="uKHmm_yyWdfWCHC5QcY_-1" value="Запуск сервиса уведомлений" style="rounded=1;whiteSpace=wrap;html=1;" vertex="1" parent="1">
          <mxGeometry x="330" y="130" width="120" height="50" as="geometry" />
        </mxCell>
        <mxCell id="uKHmm_yyWdfWCHC5QcY_-5" value="Произошла&lt;div&gt;&amp;nbsp;отмена&lt;/div&gt;&lt;div&gt;&amp;nbsp;операции?&lt;/div&gt;" style="strokeWidth=2;html=1;shape=mxgraph.flowchart.decision;whiteSpace=wrap;" vertex="1" parent="1">
          <mxGeometry x="322.5" y="310" width="135" height="100" as="geometry" />
        </mxCell>
        <mxCell id="uKHmm_yyWdfWCHC5QcY_-6" value="Инициализация операции чтения кэша" style="rounded=0;whiteSpace=wrap;html=1;" vertex="1" parent="1">
          <mxGeometry x="330" y="220" width="120" height="60" as="geometry" />
        </mxCell>
        <mxCell id="uKHmm_yyWdfWCHC5QcY_-9" value="" style="endArrow=none;html=1;rounded=0;entryX=0.5;entryY=1;entryDx=0;entryDy=0;" edge="1" parent="1" target="uKHmm_yyWdfWCHC5QcY_-1">
          <mxGeometry width="50" height="50" relative="1" as="geometry">
            <mxPoint x="390" y="220" as="sourcePoint" />
            <mxPoint x="390" y="190" as="targetPoint" />
          </mxGeometry>
        </mxCell>
        <mxCell id="uKHmm_yyWdfWCHC5QcY_-10" value="" style="endArrow=none;html=1;rounded=0;entryX=0.5;entryY=1;entryDx=0;entryDy=0;exitX=0.5;exitY=0;exitDx=0;exitDy=0;exitPerimeter=0;" edge="1" parent="1" source="uKHmm_yyWdfWCHC5QcY_-5" target="uKHmm_yyWdfWCHC5QcY_-6">
          <mxGeometry width="50" height="50" relative="1" as="geometry">
            <mxPoint x="390" y="300" as="sourcePoint" />
            <mxPoint x="440" y="270" as="targetPoint" />
          </mxGeometry>
        </mxCell>
        <mxCell id="uKHmm_yyWdfWCHC5QcY_-11" value="Считывание всех записей кэша и их ключей" style="rounded=0;whiteSpace=wrap;html=1;" vertex="1" parent="1">
          <mxGeometry x="330" y="450" width="120" height="60" as="geometry" />
        </mxCell>
        <mxCell id="uKHmm_yyWdfWCHC5QcY_-13" value="N = 1..n" style="strokeWidth=2;html=1;shape=mxgraph.flowchart.loop_limit;whiteSpace=wrap;" vertex="1" parent="1">
          <mxGeometry x="330" y="547" width="120" height="75" as="geometry" />
        </mxCell>
        <mxCell id="uKHmm_yyWdfWCHC5QcY_-14" value="Цикл повторяется для всех записей в кол-ве n" style="text;html=1;align=center;verticalAlign=middle;whiteSpace=wrap;rounded=0;" vertex="1" parent="1">
          <mxGeometry x="222.5" y="640" width="60" height="30" as="geometry" />
        </mxCell>
        <mxCell id="uKHmm_yyWdfWCHC5QcY_-15" value="" style="strokeWidth=2;html=1;shape=mxgraph.flowchart.annotation_1;align=left;pointerEvents=1;direction=west;" vertex="1" parent="1">
          <mxGeometry x="250" y="612.5" width="40" height="85" as="geometry" />
        </mxCell>
        <mxCell id="uKHmm_yyWdfWCHC5QcY_-16" value="" style="endArrow=none;html=1;rounded=0;exitX=0.02;exitY=0.278;exitDx=0;exitDy=0;exitPerimeter=0;entryX=0;entryY=0.88;entryDx=0;entryDy=0;entryPerimeter=0;" edge="1" parent="1" source="uKHmm_yyWdfWCHC5QcY_-15" target="uKHmm_yyWdfWCHC5QcY_-13">
          <mxGeometry width="50" height="50" relative="1" as="geometry">
            <mxPoint x="390" y="520" as="sourcePoint" />
            <mxPoint x="440" y="470" as="targetPoint" />
          </mxGeometry>
        </mxCell>
        <mxCell id="uKHmm_yyWdfWCHC5QcY_-18" value="Обработка записи и отправка уведомления" style="rounded=0;whiteSpace=wrap;html=1;" vertex="1" parent="1">
          <mxGeometry x="330" y="670" width="120" height="60" as="geometry" />
        </mxCell>
        <mxCell id="uKHmm_yyWdfWCHC5QcY_-19" value="Помечивание сообщения как обработанного" style="rounded=0;whiteSpace=wrap;html=1;" vertex="1" parent="1">
          <mxGeometry x="330" y="770" width="120" height="60" as="geometry" />
        </mxCell>
        <mxCell id="uKHmm_yyWdfWCHC5QcY_-20" value="" style="endArrow=none;html=1;rounded=0;exitX=0.5;exitY=1;exitDx=0;exitDy=0;" edge="1" parent="1" source="uKHmm_yyWdfWCHC5QcY_-19">
          <mxGeometry width="50" height="50" relative="1" as="geometry">
            <mxPoint x="390" y="820" as="sourcePoint" />
            <mxPoint x="390" y="880" as="targetPoint" />
          </mxGeometry>
        </mxCell>
        <mxCell id="uKHmm_yyWdfWCHC5QcY_-21" value="" style="endArrow=none;html=1;rounded=0;exitX=0.5;exitY=1;exitDx=0;exitDy=0;exitPerimeter=0;entryX=0.5;entryY=0;entryDx=0;entryDy=0;" edge="1" parent="1" source="uKHmm_yyWdfWCHC5QcY_-13" target="uKHmm_yyWdfWCHC5QcY_-18">
          <mxGeometry width="50" height="50" relative="1" as="geometry">
            <mxPoint x="390" y="820" as="sourcePoint" />
            <mxPoint x="390" y="660" as="targetPoint" />
          </mxGeometry>
        </mxCell>
        <mxCell id="uKHmm_yyWdfWCHC5QcY_-22" value="" style="endArrow=none;html=1;rounded=0;entryX=0.5;entryY=1;entryDx=0;entryDy=0;" edge="1" parent="1" target="uKHmm_yyWdfWCHC5QcY_-11">
          <mxGeometry width="50" height="50" relative="1" as="geometry">
            <mxPoint x="390" y="550" as="sourcePoint" />
            <mxPoint x="440" y="570" as="targetPoint" />
          </mxGeometry>
        </mxCell>
        <mxCell id="uKHmm_yyWdfWCHC5QcY_-23" value="" style="endArrow=none;html=1;rounded=0;entryX=0.5;entryY=1;entryDx=0;entryDy=0;entryPerimeter=0;" edge="1" parent="1" target="uKHmm_yyWdfWCHC5QcY_-5">
          <mxGeometry width="50" height="50" relative="1" as="geometry">
            <mxPoint x="390" y="450" as="sourcePoint" />
            <mxPoint x="440" y="570" as="targetPoint" />
          </mxGeometry>
        </mxCell>
        <mxCell id="uKHmm_yyWdfWCHC5QcY_-25" value="" style="endArrow=none;html=1;rounded=0;entryX=0.5;entryY=0;entryDx=0;entryDy=0;exitX=0.5;exitY=1;exitDx=0;exitDy=0;" edge="1" parent="1" source="uKHmm_yyWdfWCHC5QcY_-18" target="uKHmm_yyWdfWCHC5QcY_-19">
          <mxGeometry width="50" height="50" relative="1" as="geometry">
            <mxPoint x="390" y="820" as="sourcePoint" />
            <mxPoint x="440" y="770" as="targetPoint" />
          </mxGeometry>
        </mxCell>
        <mxCell id="uKHmm_yyWdfWCHC5QcY_-26" value="" style="endArrow=none;html=1;rounded=0;" edge="1" parent="1">
          <mxGeometry width="50" height="50" relative="1" as="geometry">
            <mxPoint x="390" y="880" as="sourcePoint" />
            <mxPoint x="160" y="880" as="targetPoint" />
          </mxGeometry>
        </mxCell>
        <mxCell id="uKHmm_yyWdfWCHC5QcY_-27" value="" style="endArrow=none;html=1;rounded=0;" edge="1" parent="1">
          <mxGeometry width="50" height="50" relative="1" as="geometry">
            <mxPoint x="160" y="880" as="sourcePoint" />
            <mxPoint x="160" y="580" as="targetPoint" />
          </mxGeometry>
        </mxCell>
        <mxCell id="uKHmm_yyWdfWCHC5QcY_-30" value="" style="endArrow=classic;html=1;rounded=0;entryX=0;entryY=0.5;entryDx=0;entryDy=0;entryPerimeter=0;" edge="1" parent="1" target="uKHmm_yyWdfWCHC5QcY_-13">
          <mxGeometry width="50" height="50" relative="1" as="geometry">
            <mxPoint x="160" y="585" as="sourcePoint" />
            <mxPoint x="320" y="540" as="targetPoint" />
          </mxGeometry>
        </mxCell>
        <mxCell id="uKHmm_yyWdfWCHC5QcY_-34" value="" style="endArrow=none;html=1;rounded=0;entryX=1;entryY=0.5;entryDx=0;entryDy=0;entryPerimeter=0;" edge="1" parent="1" target="uKHmm_yyWdfWCHC5QcY_-13">
          <mxGeometry width="50" height="50" relative="1" as="geometry">
            <mxPoint x="610" y="585" as="sourcePoint" />
            <mxPoint x="440" y="770" as="targetPoint" />
          </mxGeometry>
        </mxCell>
        <mxCell id="uKHmm_yyWdfWCHC5QcY_-36" value="Удаление всех обработанных сообщений в кэше" style="rounded=0;whiteSpace=wrap;html=1;" vertex="1" parent="1">
          <mxGeometry x="330" y="940" width="120" height="60" as="geometry" />
        </mxCell>
        <mxCell id="uKHmm_yyWdfWCHC5QcY_-37" value="" style="endArrow=none;html=1;rounded=0;" edge="1" parent="1">
          <mxGeometry width="50" height="50" relative="1" as="geometry">
            <mxPoint x="610" y="910" as="sourcePoint" />
            <mxPoint x="610" y="580" as="targetPoint" />
          </mxGeometry>
        </mxCell>
        <mxCell id="uKHmm_yyWdfWCHC5QcY_-38" value="" style="endArrow=none;html=1;rounded=0;" edge="1" parent="1">
          <mxGeometry width="50" height="50" relative="1" as="geometry">
            <mxPoint x="390" y="910" as="sourcePoint" />
            <mxPoint x="610" y="910" as="targetPoint" />
          </mxGeometry>
        </mxCell>
        <mxCell id="uKHmm_yyWdfWCHC5QcY_-40" value="" style="endArrow=none;html=1;rounded=0;" edge="1" parent="1">
          <mxGeometry width="50" height="50" relative="1" as="geometry">
            <mxPoint x="390" y="940" as="sourcePoint" />
            <mxPoint x="390" y="910" as="targetPoint" />
          </mxGeometry>
        </mxCell>
        <mxCell id="uKHmm_yyWdfWCHC5QcY_-41" value="" style="endArrow=none;html=1;rounded=0;exitX=0.5;exitY=1;exitDx=0;exitDy=0;" edge="1" parent="1" source="uKHmm_yyWdfWCHC5QcY_-36">
          <mxGeometry width="50" height="50" relative="1" as="geometry">
            <mxPoint x="390" y="920" as="sourcePoint" />
            <mxPoint x="390" y="1050" as="targetPoint" />
          </mxGeometry>
        </mxCell>
        <mxCell id="uKHmm_yyWdfWCHC5QcY_-42" value="" style="endArrow=none;html=1;rounded=0;" edge="1" parent="1">
          <mxGeometry width="50" height="50" relative="1" as="geometry">
            <mxPoint x="390" y="1120" as="sourcePoint" />
            <mxPoint x="120" y="1120" as="targetPoint" />
          </mxGeometry>
        </mxCell>
        <mxCell id="uKHmm_yyWdfWCHC5QcY_-43" value="" style="endArrow=none;html=1;rounded=0;" edge="1" parent="1">
          <mxGeometry width="50" height="50" relative="1" as="geometry">
            <mxPoint x="120" y="1120" as="sourcePoint" />
            <mxPoint x="120" y="360" as="targetPoint" />
          </mxGeometry>
        </mxCell>
        <mxCell id="uKHmm_yyWdfWCHC5QcY_-44" value="" style="endArrow=classic;html=1;rounded=0;entryX=0;entryY=0.5;entryDx=0;entryDy=0;entryPerimeter=0;" edge="1" parent="1" target="uKHmm_yyWdfWCHC5QcY_-5">
          <mxGeometry width="50" height="50" relative="1" as="geometry">
            <mxPoint x="120" y="360" as="sourcePoint" />
            <mxPoint x="440" y="470" as="targetPoint" />
          </mxGeometry>
        </mxCell>
        <mxCell id="uKHmm_yyWdfWCHC5QcY_-45" value="" style="endArrow=none;html=1;rounded=0;entryX=1;entryY=0.5;entryDx=0;entryDy=0;entryPerimeter=0;" edge="1" parent="1" target="uKHmm_yyWdfWCHC5QcY_-5">
          <mxGeometry width="50" height="50" relative="1" as="geometry">
            <mxPoint x="720" y="360" as="sourcePoint" />
            <mxPoint x="440" y="570" as="targetPoint" />
          </mxGeometry>
        </mxCell>
        <mxCell id="uKHmm_yyWdfWCHC5QcY_-48" value="Ожидание задержки перед следующей итераций" style="rounded=0;whiteSpace=wrap;html=1;" vertex="1" parent="1">
          <mxGeometry x="330" y="1040" width="120" height="60" as="geometry" />
        </mxCell>
        <mxCell id="uKHmm_yyWdfWCHC5QcY_-49" value="" style="endArrow=none;html=1;rounded=0;entryX=0.5;entryY=1;entryDx=0;entryDy=0;" edge="1" parent="1" target="uKHmm_yyWdfWCHC5QcY_-48">
          <mxGeometry width="50" height="50" relative="1" as="geometry">
            <mxPoint x="390" y="1120" as="sourcePoint" />
            <mxPoint x="440" y="970" as="targetPoint" />
          </mxGeometry>
        </mxCell>
        <mxCell id="uKHmm_yyWdfWCHC5QcY_-52" value="Отключение от сервера с кэшем" style="rounded=0;whiteSpace=wrap;html=1;" vertex="1" parent="1">
          <mxGeometry x="657" y="790" width="120" height="60" as="geometry" />
        </mxCell>
        <mxCell id="uKHmm_yyWdfWCHC5QcY_-53" value="Отмена всех незавершенных операций" style="rounded=0;whiteSpace=wrap;html=1;" vertex="1" parent="1">
          <mxGeometry x="657" y="940" width="120" height="60" as="geometry" />
        </mxCell>
        <mxCell id="uKHmm_yyWdfWCHC5QcY_-54" value="" style="endArrow=none;html=1;rounded=0;entryX=0.5;entryY=1;entryDx=0;entryDy=0;" edge="1" parent="1" source="uKHmm_yyWdfWCHC5QcY_-53" target="uKHmm_yyWdfWCHC5QcY_-52">
          <mxGeometry width="50" height="50" relative="1" as="geometry">
            <mxPoint x="507" y="1010" as="sourcePoint" />
            <mxPoint x="557" y="960" as="targetPoint" />
          </mxGeometry>
        </mxCell>
        <mxCell id="uKHmm_yyWdfWCHC5QcY_-55" value="Остановка сервиса&lt;div&gt;рассылки уведомлений&lt;/div&gt;" style="rounded=1;whiteSpace=wrap;html=1;" vertex="1" parent="1">
          <mxGeometry x="657" y="1070" width="120" height="60" as="geometry" />
        </mxCell>
        <mxCell id="uKHmm_yyWdfWCHC5QcY_-56" value="" style="endArrow=none;html=1;rounded=0;entryX=0.5;entryY=1;entryDx=0;entryDy=0;" edge="1" parent="1" source="uKHmm_yyWdfWCHC5QcY_-55" target="uKHmm_yyWdfWCHC5QcY_-53">
          <mxGeometry width="50" height="50" relative="1" as="geometry">
            <mxPoint x="507" y="1110" as="sourcePoint" />
            <mxPoint x="557" y="1060" as="targetPoint" />
          </mxGeometry>
        </mxCell>
        <mxCell id="uKHmm_yyWdfWCHC5QcY_-57" value="Да" style="text;html=1;align=center;verticalAlign=middle;whiteSpace=wrap;rounded=0;" vertex="1" parent="1">
          <mxGeometry x="457.5" y="330" width="60" height="30" as="geometry" />
        </mxCell>
        <mxCell id="uKHmm_yyWdfWCHC5QcY_-58" value="Нет" style="text;html=1;align=center;verticalAlign=middle;whiteSpace=wrap;rounded=0;" vertex="1" parent="1">
          <mxGeometry x="370" y="410" width="70" height="30" as="geometry" />
        </mxCell>
        <mxCell id="uKHmm_yyWdfWCHC5QcY_-59" value="Облачный&lt;div&gt;кэш&lt;/div&gt;&lt;div&gt;Redis&lt;/div&gt;" style="shape=cylinder3;whiteSpace=wrap;html=1;boundedLbl=1;backgroundOutline=1;size=15;" vertex="1" parent="1">
          <mxGeometry x="510" y="435" width="77.5" height="90" as="geometry" />
        </mxCell>
        <mxCell id="uKHmm_yyWdfWCHC5QcY_-60" value="Данные о подключении&lt;div&gt;к серверу&lt;/div&gt;" style="shape=cylinder3;whiteSpace=wrap;html=1;boundedLbl=1;backgroundOutline=1;size=15;" vertex="1" parent="1">
          <mxGeometry x="587.5" y="140" width="77.5" height="90" as="geometry" />
        </mxCell>
        <mxCell id="uKHmm_yyWdfWCHC5QcY_-61" value="Данные&lt;div&gt;доступа к кэшу&lt;/div&gt;" style="shape=cylinder3;whiteSpace=wrap;html=1;boundedLbl=1;backgroundOutline=1;size=15;" vertex="1" parent="1">
          <mxGeometry x="587.5" y="240" width="77.5" height="90" as="geometry" />
        </mxCell>
        <mxCell id="uKHmm_yyWdfWCHC5QcY_-62" value="" style="endArrow=classic;html=1;rounded=0;" edge="1" parent="1" target="uKHmm_yyWdfWCHC5QcY_-6">
          <mxGeometry width="50" height="50" relative="1" as="geometry">
            <mxPoint x="520" y="250" as="sourcePoint" />
            <mxPoint x="350" y="330" as="targetPoint" />
          </mxGeometry>
        </mxCell>
        <mxCell id="uKHmm_yyWdfWCHC5QcY_-63" value="" style="endArrow=none;html=1;rounded=0;entryX=0;entryY=0.5;entryDx=0;entryDy=0;entryPerimeter=0;" edge="1" parent="1" target="uKHmm_yyWdfWCHC5QcY_-60">
          <mxGeometry width="50" height="50" relative="1" as="geometry">
            <mxPoint x="520" y="185" as="sourcePoint" />
            <mxPoint x="350" y="330" as="targetPoint" />
          </mxGeometry>
        </mxCell>
        <mxCell id="uKHmm_yyWdfWCHC5QcY_-64" value="" style="endArrow=none;html=1;rounded=0;entryX=0;entryY=0.5;entryDx=0;entryDy=0;entryPerimeter=0;" edge="1" parent="1" target="uKHmm_yyWdfWCHC5QcY_-61">
          <mxGeometry width="50" height="50" relative="1" as="geometry">
            <mxPoint x="520" y="285" as="sourcePoint" />
            <mxPoint x="350" y="330" as="targetPoint" />
          </mxGeometry>
        </mxCell>
        <mxCell id="uKHmm_yyWdfWCHC5QcY_-65" value="" style="endArrow=none;html=1;rounded=0;" edge="1" parent="1">
          <mxGeometry width="50" height="50" relative="1" as="geometry">
            <mxPoint x="520" y="290" as="sourcePoint" />
            <mxPoint x="520" y="180" as="targetPoint" />
          </mxGeometry>
        </mxCell>
        <mxCell id="uKHmm_yyWdfWCHC5QcY_-66" value="" style="endArrow=classic;html=1;rounded=0;exitX=0;exitY=0.5;exitDx=0;exitDy=0;exitPerimeter=0;" edge="1" parent="1" source="uKHmm_yyWdfWCHC5QcY_-59" target="uKHmm_yyWdfWCHC5QcY_-11">
          <mxGeometry width="50" height="50" relative="1" as="geometry">
            <mxPoint x="300" y="480" as="sourcePoint" />
            <mxPoint x="350" y="430" as="targetPoint" />
          </mxGeometry>
        </mxCell>
        <mxCell id="uKHmm_yyWdfWCHC5QcY_-67" value="Данные&lt;div&gt;о эл. почте&lt;/div&gt;&lt;div&gt;пользователя&lt;/div&gt;" style="shape=cylinder3;whiteSpace=wrap;html=1;boundedLbl=1;backgroundOutline=1;size=15;" vertex="1" parent="1">
          <mxGeometry x="507.5" y="590" width="80" height="100" as="geometry" />
        </mxCell>
        <mxCell id="uKHmm_yyWdfWCHC5QcY_-68" value="Данные&lt;div&gt;о устройствах&lt;/div&gt;&lt;div&gt;пользователя&lt;/div&gt;" style="shape=cylinder3;whiteSpace=wrap;html=1;boundedLbl=1;backgroundOutline=1;size=15;" vertex="1" parent="1">
          <mxGeometry x="508.75" y="710" width="80" height="100" as="geometry" />
        </mxCell>
        <mxCell id="uKHmm_yyWdfWCHC5QcY_-69" value="" style="endArrow=classic;html=1;rounded=0;entryX=1;entryY=0.5;entryDx=0;entryDy=0;" edge="1" parent="1" target="uKHmm_yyWdfWCHC5QcY_-18">
          <mxGeometry width="50" height="50" relative="1" as="geometry">
            <mxPoint x="480" y="700" as="sourcePoint" />
            <mxPoint x="350" y="750" as="targetPoint" />
          </mxGeometry>
        </mxCell>
        <mxCell id="uKHmm_yyWdfWCHC5QcY_-70" value="" style="endArrow=none;html=1;rounded=0;entryX=0;entryY=0;entryDx=0;entryDy=67.5;entryPerimeter=0;" edge="1" parent="1" target="uKHmm_yyWdfWCHC5QcY_-68">
          <mxGeometry width="50" height="50" relative="1" as="geometry">
            <mxPoint x="480" y="778" as="sourcePoint" />
            <mxPoint x="253.75" y="790" as="targetPoint" />
          </mxGeometry>
        </mxCell>
        <mxCell id="uKHmm_yyWdfWCHC5QcY_-71" value="" style="endArrow=none;html=1;rounded=0;entryX=0;entryY=0.5;entryDx=0;entryDy=0;entryPerimeter=0;" edge="1" parent="1" target="uKHmm_yyWdfWCHC5QcY_-67">
          <mxGeometry width="50" height="50" relative="1" as="geometry">
            <mxPoint x="480" y="640" as="sourcePoint" />
            <mxPoint x="253.75" y="790" as="targetPoint" />
          </mxGeometry>
        </mxCell>
        <mxCell id="uKHmm_yyWdfWCHC5QcY_-72" value="" style="endArrow=none;html=1;rounded=0;" edge="1" parent="1">
          <mxGeometry width="50" height="50" relative="1" as="geometry">
            <mxPoint x="480" y="780" as="sourcePoint" />
            <mxPoint x="480" y="640" as="targetPoint" />
          </mxGeometry>
        </mxCell>
        <mxCell id="uKHmm_yyWdfWCHC5QcY_-74" value="" style="endArrow=none;html=1;rounded=0;exitX=1;exitY=0.5;exitDx=0;exitDy=0;" edge="1" parent="1" source="uKHmm_yyWdfWCHC5QcY_-36">
          <mxGeometry width="50" height="50" relative="1" as="geometry">
            <mxPoint x="300" y="800" as="sourcePoint" />
            <mxPoint x="630" y="970" as="targetPoint" />
          </mxGeometry>
        </mxCell>
        <mxCell id="uKHmm_yyWdfWCHC5QcY_-76" value="" style="endArrow=none;html=1;rounded=0;" edge="1" parent="1">
          <mxGeometry width="50" height="50" relative="1" as="geometry">
            <mxPoint x="630" y="490" as="sourcePoint" />
            <mxPoint x="630" y="970" as="targetPoint" />
          </mxGeometry>
        </mxCell>
        <mxCell id="uKHmm_yyWdfWCHC5QcY_-77" value="" style="endArrow=classic;html=1;rounded=0;entryX=1;entryY=0;entryDx=0;entryDy=60;entryPerimeter=0;" edge="1" parent="1" target="uKHmm_yyWdfWCHC5QcY_-59">
          <mxGeometry width="50" height="50" relative="1" as="geometry">
            <mxPoint x="630" y="495" as="sourcePoint" />
            <mxPoint x="160" y="610" as="targetPoint" />
          </mxGeometry>
        </mxCell>
        <mxCell id="uKHmm_yyWdfWCHC5QcY_-78" value="" style="endArrow=classic;html=1;rounded=0;entryX=0.5;entryY=0;entryDx=0;entryDy=0;" edge="1" parent="1" target="uKHmm_yyWdfWCHC5QcY_-52">
          <mxGeometry width="50" height="50" relative="1" as="geometry">
            <mxPoint x="717" y="360" as="sourcePoint" />
            <mxPoint x="160" y="610" as="targetPoint" />
          </mxGeometry>
        </mxCell>
      </root>
    </mxGraphModel>
  </diagram>
</mxfile>
